<svg xmlns="http://www.w3.org/2000/svg" version="1.1" xmlns:xlink="http://www.w3.org/1999/xlink" xmlns:svgjs="http://svgjs.dev/svgjs" width="2000" height="1500" viewBox="0 0 2000 1500">
<rect width="2000" height="1500" fill="#ffffff"></rect>
<g transform="matrix(0.75,0,0,0.75,249.090909090909,282.7536437246963)">
<svg viewBox="0 0 396 247" data-background-color="#ffffff" preserveAspectRatio="xMidYMid meet" height="1247" width="2000" xmlns="http://www.w3.org/2000/svg" xmlns:xlink="http://www.w3.org/1999/xlink">
<g id="tight-bounds" transform="matrix(1,0,0,1,0.2400000000000091,-0.09999999999999432)">
<svg viewBox="0 0 395.52 247.2" height="247.2" width="395.52"><g><svg></svg></g><g>
<svg viewBox="0 0 395.52 247.2" height="247.2" width="395.52">
<g transform="matrix(1,0,0,1,75.54432,81.74531506849314)">
<svg viewBox="0 0 244.43135999999998 83.70936986301369" height="83.70936986301369" width="244.43135999999998"><g>
<svg viewBox="0 0 244.43135999999998 83.70936986301369" height="83.70936986301369" width="244.43135999999998"><g>
<svg viewBox="0 0 244.43135999999998 83.70936986301369" height="83.70936986301369" width="244.43135999999998"><g>
<svg viewBox="0 0 244.43135999999998 83.70936986301369" height="83.70936986301369" width="244.43135999999998"><g id="textblocktransform">
<svg viewBox="0 0 244.43135999999998 83.70936986301369" height="83.70936986301369" width="244.43135999999998" id="textblock"><g>
<svg viewBox="0 0 244.43135999999998 83.70936986301369" height="83.70936986301369" width="244.43135999999998"><g transform="matrix(1,0,0,1,0,0)">
<svg width="244.43135999999998" viewBox="3 -38.15 145.99 50" height="83.70936986301369" data-palette-color="#8d021f">
<path d="M14.3 0.3L14.3 0.3Q13.2 0.3 11.68 0.23 10.15 0.15 8.55 0.03 6.95-0.1 5.53-0.25 4.1-0.4 3.15-0.6L3.15-0.6 3.15-3.65Q4.4-3.55 6.2-3.45 8-3.35 10.08-3.3 12.15-3.25 14.15-3.25L14.15-3.25Q16.4-3.25 18.2-3.7 20-4.15 21.08-5.35 22.15-6.55 22.15-8.8L22.15-8.8 22.15-11.3Q22.15-13.85 20.85-15.18 19.55-16.5 16.65-16.5L16.65-16.5 12.7-16.5Q8.15-16.5 5.58-18.5 3-20.5 3-25.4L3-25.4 3-27.5Q3-32.7 5.8-34.9 8.6-37.1 13.7-37.1L13.7-37.1Q15.3-37.1 17.3-36.93 19.3-36.75 21.18-36.52 23.05-36.3 24.3-36.05L24.3-36.05 24.3-33Q22.1-33.2 19.33-33.35 16.55-33.5 14.1-33.5L14.1-33.5Q11.85-33.5 10.2-32.98 8.55-32.45 7.68-31.13 6.8-29.8 6.8-27.35L6.8-27.35 6.8-25.65Q6.8-22.6 8.4-21.45 10-20.3 12.85-20.3L12.85-20.3 17.1-20.3Q20.15-20.3 22.1-19.2 24.05-18.1 25-16.18 25.95-14.25 25.95-11.75L25.95-11.75 25.95-8.9Q25.95-5.2 24.38-3.2 22.8-1.2 20.18-0.45 17.55 0.3 14.3 0.3ZM36.65 0L32.7 0 32.7-38.15 36.65-38.15 36.65-23.75Q38.5-25.1 41.07-26.13 43.65-27.15 46.45-27.15L46.45-27.15Q49.25-27.15 51.07-25.95 52.9-24.75 53.77-22.7 54.65-20.65 54.65-18.15L54.65-18.15 54.65 0 50.7 0 50.7-17.75Q50.7-19.45 50.02-20.75 49.35-22.05 48.1-22.8 46.85-23.55 45.1-23.55L45.1-23.55Q43.45-23.55 42.05-23.23 40.65-22.9 39.35-22.33 38.05-21.75 36.65-20.95L36.65-20.95 36.65 0ZM65.5-31.45L62.7-31.45Q61.9-31.45 61.9-32.25L61.9-32.25 61.9-36.15Q61.9-36.95 62.7-36.95L62.7-36.95 65.5-36.95Q65.89-36.95 66.07-36.73 66.25-36.5 66.25-36.15L66.25-36.15 66.25-32.25Q66.25-31.45 65.5-31.45L65.5-31.45ZM66.05 0L62.09 0 62.09-26.7 66.05-26.7 66.05 0ZM85.34 0L80.84 0 70.79-26.7 74.84-26.7 83.14-3.7 91.69-26.7 95.69-26.7 85.34 0ZM104.64 0.3L104.64 0.3Q101.69 0.3 99.79-1.45 97.89-3.2 97.89-6.4L97.89-6.4 97.89-8.3Q97.89-11.45 99.97-13.4 102.04-15.35 106.24-15.35L106.24-15.35 115.29-15.35 115.29-18.65Q115.29-20.3 114.72-21.48 114.14-22.65 112.67-23.3 111.19-23.95 108.39-23.95L108.39-23.95 100.09-23.95 100.09-26.3Q101.84-26.6 104.17-26.85 106.49-27.1 109.64-27.1L109.64-27.1Q112.89-27.15 115.04-26.3 117.19-25.45 118.22-23.63 119.24-21.8 119.24-18.85L119.24-18.85 119.24 0 116.19 0 115.44-3.05Q115.24-2.85 114.22-2.35 113.19-1.85 111.62-1.23 110.04-0.6 108.22-0.15 106.39 0.3 104.64 0.3ZM106.29-2.65L106.29-2.65Q107.19-2.6 108.34-2.85 109.49-3.1 110.69-3.43 111.89-3.75 112.92-4.1 113.94-4.45 114.59-4.7 115.24-4.95 115.29-4.95L115.29-4.95 115.29-13.35 107.14-13Q104.29-12.9 103.06-11.6 101.84-10.3 101.84-8.25L101.84-8.25 101.84-7.05Q101.84-5.45 102.52-4.48 103.19-3.5 104.22-3.1 105.24-2.7 106.29-2.65ZM136.94 11.85L133.84 11.85 137.24 0Q135.99-0.05 134.64-0.6 133.29-1.15 132.14-2.5 130.99-3.85 130.24-6.25L130.24-6.25 123.84-26.7 127.99-26.7 133.94-7.1Q134.49-5.55 135.11-4.8 135.74-4.05 136.39-3.75 137.04-3.45 137.51-3.43 137.99-3.4 138.09-3.4L138.09-3.4 144.94-26.7 148.99-26.7 139.24 6.9 136.94 11.85Z" opacity="1" transform="matrix(1,0,0,1,0,0)" fill="#8d021f" class="wordmark-text-0" data-fill-palette-color="primary" id="text-0"></path>
</svg></g></svg></g></svg></g></svg></g></svg></g></svg></g></svg></g><g>
<path d="M245.816 0c68.262 0 123.6 55.338 123.6 123.6 0 68.262-55.338 123.6-123.6 123.6-49.791 0-92.705-29.441-112.285-71.864h4.173c19.309 40.277 60.463 68.09 108.112 68.09 66.178 0 119.826-53.648 119.825-119.826 0-66.178-53.648-119.826-119.825-119.826-47.65 0-88.803 27.813-108.112 68.09l-4.173 0c19.579-42.423 62.494-71.864 112.285-71.864z" fill="#8d021f" stroke="transparent" data-fill-palette-color="tertiary"></path></g></svg></g><defs></defs></svg>
<rect width="395.52" height="247.2" fill="none" stroke="none" visibility="hidden"></rect>
</g></svg></g></svg>